# xmcd
#
# Track frame offsets:
#	150
#	12266
#	29720
#	47083
#	59075
#	70196
#	85861
#	101538
#	115839
#	131182
#	145540
#	155071
#	166250
#	203205
#	215343
#	227788
#	252455
#	268045
#	284457
#	300649
#	314791
#	325765
#	341156
#
# Disc length: 4770 seconds
#
# Revision: 0
# Processed by: cddbd v1.5.2PL0 Copyright (c) Steve Scherf et al.
# Submitted via: EasyCDDAExtractor 10.0.1.1
#
DISCID=6412a017
DTITLE=Valentín Elizalde - 22 Exitos:Volumen II
DYEAR=1900
DGENRE=Banda
TTITLE0=Vete Ya
TTITLE1=Sobre la Tumba de Mi Padre
TTITLE2=El Huzache
TTITLE3=Vuelve Cariñito
TTITLE4=Viaje Especial
TTITLE5=Gracias Porque Volviste
TTITLE6=Mi Satisfaccion
TTITLE7=Lalo el de Guadalajara
TTITLE8=La Papa
TTITLE9=Vazu (Una Estrella)
TTITLE10=Rama Especial
TTITLE11=Pedida y Dada
TTITLE12=La Playa
TTITLE13=Mi Virgencita
TTITLE14=Los Pajaros
TTITLE15=Ni Dada La Quiero
TTITLE16=Hola Y Adios
TTITLE17=Una Noche Para Dos
TTITLE18=Mi Amante
TTITLE19=Vete Con Él
TTITLE20=Y Se Parece a Tí
TTITLE21=El Sinaloense
TTITLE22=El Señor
EXTD=
EXTT0=
EXTT1=
EXTT2=
EXTT3=
EXTT4=
EXTT5=
EXTT6=
EXTT7=
EXTT8=
EXTT9=
EXTT10=
EXTT11=
EXTT12=
EXTT13=
EXTT14=
EXTT15=
EXTT16=
EXTT17=
EXTT18=
EXTT19=
EXTT20=
EXTT21=
EXTT22=
PLAYORDER=
